<?xml version="1.0" encoding="UTF-8"?>
<svg viewBox="0 0 512 490" version="1.1" xmlns="http://www.w3.org/2000/svg" xmlns:xlink="http://www.w3.org/1999/xlink">
    <!-- Generator: Sketch 58 (84663) - https://sketch.com -->
    <title>theFingerCompanies</title>
    <desc>Created with Sketch.</desc>
    <g id="Favicons" stroke="none" stroke-width="1" fill="none" fill-rule="evenodd">
        <g id="download" fill="#364959" fill-rule="nonzero">
            <path d="M258.345314,25.9788584 L200.614517,219.737844 L264.840028,219.737844 C293.705571,219.737844 315.294267,215.287806 329.606765,206.387597 C343.919263,197.487388 358.652496,178.484524 373.806906,149.378436 L387.51797,149.378436 L336.642706,327.622269 L322.210007,327.622269 C325.8182,313.189498 327.622269,301.28264 327.622269,291.901339 C327.622269,277.228022 322.751282,265.862385 313.009161,257.804087 C303.267041,249.74579 285.04594,245.716702 258.345314,245.716702 L193.398168,245.716702 L148.26476,402.180429 C142.271924,423.49244 139.275546,437.968705 139.275546,445.609584 C139.275546,454.509793 142.583007,461.365257 149.198027,466.17618 C155.813047,470.987104 171.989535,474.234429 197.727977,475.918252 L193.398168,489.268499 L0,489.268499 L4.6906272,475.918252 C23.4532298,475.43716 35.9614439,473.753362 42.2156448,470.866808 C51.8374923,466.777522 58.9334984,461.245043 63.503876,454.269204 C69.6378037,444.954721 76.8444348,426.307095 85.1239638,398.325813 L172.831572,98.5031712 C179.807411,74.6890987 183.295278,56.0470488 183.295278,42.5764623 C183.295278,36.3222614 181.731752,30.970189 178.604651,26.5200846 C175.477551,22.0699801 170.847106,18.7625196 164.713178,16.5976039 C158.579251,14.4326883 146.371715,13.3502467 128.090204,13.3502467 L132.420014,2.84217094e-14 L512,2.84217094e-14 L475.918252,123.760395 L462.207188,123.760395 C464.853196,108.846531 466.17618,96.5788595 466.17618,86.957012 C466.17618,71.0809636 461.786278,58.5126138 453.006342,49.2515856 C444.226407,39.9905574 432.981041,33.4357721 419.269908,29.5870331 C410.129153,27.3018443 390.242589,26.1021365 359.609663,25.9878787 L258.345314,25.9788584 Z" id="theFingerCompanies"></path>
        </g>
    </g>
</svg>